<svg xmlns="http://www.w3.org/2000/svg" version="1.1" xmlns:xlink="http://www.w3.org/1999/xlink" width="31.88" height="32" x="0" y="0" viewBox="0 0 523.2 525.4" style="enable-background:new 0 0 512 512" xml:space="preserve" class=""><g><path fill="#d8b49a" d="M475.4 235.5c-1.5 18.8-3.7 45.7-5.5 66.1-7.6-4.9-17.1-3.1-22.4 1.5l-25.3 20.5c4.1-26.5 10.2-66.7 12.7-83.8 3.4-23.4 39.6-26.6 40.5-4.3z" opacity="1" data-original="#d8b49a"></path><path fill="#efcdb1" d="M477.1 217.4c-.4 4.7-1.2 14-1.2 14-.9 10.2-3.8 44.8-6 70.3-7.6-4.9-17.1-3.1-22.4 1.5l-25.3 20.5-27.2 22.1s-26.6 2.5-55.7 33c-11.8 12.4-17.5 29.9-20 46.6-3.9 26.1-.2 50.3-.2 50.3l2.6 5h115.5l79.4-94.9-.1-167.5c2-25.9-34.2-22.8-39.4-.9z" opacity="1" data-original="#efcdb1" class=""></path><path fill="#d8b49a" d="m516.7 218.3.1 167.5-79.5 94.9H321.8l-2.6-5s-1.2-8-1.5-19.7c12.9 4.7 26.6 6.3 40.8 4.3 101.3-14.2 122-73 126.1-142.2 1.7-28.5 3.5-72.9 8.2-116.9 11.6-3.8 25 1.1 23.9 17.1z" opacity="1" data-original="#d8b49a"></path><path fill="#3f8fd5" d="M317.6 480.7h119.7v38.7H317.6z" opacity="1" data-original="#3f8fd5"></path><path fill="#d8b49a" d="M46.9 235.5c1.5 18.8 3.7 45.7 5.5 66.1 7.6-4.9 17.1-3.1 22.4 1.5l25.3 20.5c-4.1-26.5-10.2-66.7-12.7-83.8-3.3-23.4-39.5-26.6-40.5-4.3z" opacity="1" data-original="#d8b49a"></path><path fill="#efcdb1" d="M45.2 217.4c.4 4.7 5 58.8 7.2 84.3 7.6-4.9 17.1-3.1 22.4 1.5l25.3 20.5 27.2 22.1s26.6 2.5 55.7 33c11.8 12.4 17.5 29.9 20 46.6 3.9 26.1.2 50.3.2 50.3l-2.6 5H85L5.6 386.8l.1-168.6c-1.9-25.8 34.3-22.7 39.5-.8z" opacity="1" data-original="#efcdb1" class=""></path><path fill="#d8b49a" d="m5.7 218.3-.1 168.5L85 480.7h115.6l2.5-5s1.2-8 1.5-19.7c-12.9 4.7-26.6 6.3-40.8 4.3-101.3-14.2-122-73-126.1-142.2-1.7-28.5-3.5-72.9-8.2-116.9-11.6-3.8-25 1.1-23.8 17.1z" opacity="1" data-original="#d8b49a"></path><path fill="#3f8fd5" d="M85 480.6h119.7v38.7H85z" opacity="1" data-original="#3f8fd5"></path><path fill="#55bde3" d="M441.2 182.2c0 97.3-78.8 176.1-176.1 176.1S89 279.5 89 182.2c0-43.3 15.6-82.9 41.5-113.6l.2-.2C163 30.3 211.2 6.1 265.1 6.1c2.9 0 5.9.1 8.8.2C306 7.9 335.8 18 361.2 34.5c42.7 27.8 72.6 73.7 78.9 126.8.7 6.9 1.1 13.9 1.1 20.9z" opacity="1" data-original="#55bde3"></path><path fill="#3f8fd5" d="m440 161.3-.2.1-16.5 8-17.5 36.4-55.9 13.7-27-35 29.4-40.8-6.9-15.1L375 97.4l-14.3-31.1.3-31.6c42.8 27.7 72.7 73.5 79 126.6zM291.9 105.3l-2.6 39.7-41 16-12-27.9-36 3.2-14.4-33h-.1c-1.4-1.1-51.9-32.1-55.2-34.6l.2-.2C163 30.3 211.2 6.1 265.1 6.1c2.9 0 5.9.1 8.8.2-1.1 26.7-2.3 53.5-2.3 53.5zM220.8 185.5s14.8-1.5 20.5-2.5c14-2.4 41.4 3.9 41.4 3.9l11.2 36.1-12.8 12-12.9 30.6-4.6 46.5-26.6 29.7s-5.2-20.2-6.3-29-3.2-27.9-3.2-27.9l-10.8-6-10.7-28.4-27.9-9 9.9-44.2zM111.2 171.7l14.9-17.9 19.2 8.9v28.6h-8.5z" opacity="1" data-original="#3f8fd5"></path><circle cx="211.2" cy="60.5" r="26.6" fill="#fdc00f" opacity="1" data-original="#fdc00f"></circle><circle cx="323" cy="256.6" r="26.6" fill="#fdc00f" opacity="1" data-original="#fdc00f"></circle><path d="M504.8 194.1c-7-1.1-15 .7-21.5 5.1-4.9-10-12.1-20.2-21.5-30.5 23.6-27.3 32.2-53.4 24.2-75-1.5-4-3.6-7.9-6.2-11.4-14.4-19.6-45.7-30.8-88.4-31.8-8.1-7.7-16.9-14.7-26.5-21C338.3 12.2 307.4 2.1 275.7.4c-.3-.1-7.1-.4-10.2-.4-45.1 0-88.1 16.6-121.2 46.3-8.6.2-17 .8-24.9 1.8h-.3c-40.7 5.3-67.5 21-75.4 44.4-8 23.7 4 52.6 33.8 81.8 0 0-21.6 25.7-27.2 37.6-5.4-13.2-20-19.6-31.8-17.7C6.4 196.1-.8 205.6.1 218.5V389l79.4 94.4v36c0 3.3 2.7 6 6 6h119.7c3.3 0 6-2.7 6-6v-38.7c0-1.6-.6-3-1.6-4.1.2-1.5 3.8-25.6-.2-52-3.2-21.5-10.5-38.3-21.6-49.9-26.2-27.4-50.6-33.4-57.6-34.6L106 320.5c-1.3-8.8-2.6-16.9-3.7-24.4 7.4 1.6 15.5 2.8 24.2 3.5 33.4 39.6 83.4 64.7 139.1 64.7 61.4 0 115.8-30.6 148.9-77.3 2.8-.4 5.5-.8 8.1-1.3-1.5 10.2-3.3 21.7-5.3 34.7L393.1 340c-7 1.2-31.4 7.2-57.6 34.6-11.1 11.7-18.4 28.4-21.6 49.9-4 26.7-.4 51.1-.2 52.1-1 1.1-1.6 2.5-1.6 4.1v38.7c0 3.3 2.7 6 6 6h119.7c3.3 0 6-2.7 6-6v-36.1l79.4-95.4V218.4c.8-12.9-6.4-22.5-18.4-24.3zM323.5 224c-18 0-32.6 14.6-32.6 32.6 0 1.3.1 2.5.2 3.8-5.3 1.9-10.6 3.7-15.9 5.4l11.5-27.3 11.8-11.1c1.7-1.5 2.3-3.9 1.6-6.1l-11.2-36.1c-.6-2.1-2.3-3.6-4.4-4.1-1.2-.2-28.8-6.5-43.8-3.9-5.4 1-20 2.5-20.1 2.5-.5 0-1 .1-1.4.3l-32.9 11.7c-1.9.6-3.4 2.3-3.8 4.3l-9.9 44.2c-.7 3 1.1 6 4 7l25.2 8.2 9.7 25.7c.1.3.3.6.5.9-26.4 4.9-51.5 7.1-74.1 6.3-1.8-.1-3.5-.1-5.3-.2-23.2-29.1-37.1-65.9-37.1-106 0-38.3 13-75.5 36.6-105.4 2 1.3 4.2 2.5 6.5 3.8 2.4 1.3 5 2.6 8 3.9 11.2 5.1 30 19.1 34.8 22.7l13.9 31.6c1 2.4 3.4 3.8 6 3.6l31.7-2.8 10.3 23.9c1 2.2 3.2 3.6 5.5 3.6.7 0 1.4-.1 2.1-.5l41-16c2.2-.9 3.6-2.9 3.8-5.2l2.6-39.7c.1-1-.1-2-.5-2.9L288.5 82c1.9.6 3.8 1.2 5.7 1.9 3.6 1.2 7.2 2.5 10.6 3.7 17.8 6.5 35 13.7 51.3 21.6l-14.4 15.2a5.98 5.98 0 0 0-1.1 6.6l5.4 12-27.4 38c-1.6 2.2-1.5 5.1.1 7.2l27.1 35c1.1 1.5 2.9 2.3 4.7 2.3.5 0 1 0 1.6-.2l29-7.1c-10.3 6.2-21.1 12.1-32.4 17.7-6-7.3-15.1-11.9-25.2-11.9zm20.6 32.5c0 11.3-9.2 20.6-20.6 20.6-7.3 0-13.7-3.8-17.4-9.5-2.1-3.2-3.2-7-3.2-11.1v-.5c.3-11.1 9.4-20.1 20.6-20.1 5.4 0 10.3 2.1 13.9 5.4 3 2.7 5.2 6.3 6.1 10.4.4 1.6.6 3.2.6 4.8zm-115.3 22.1-6.8-3.8-10.1-26.3c-.7-1.7-2.1-3-3.8-3.6l-22.7-7.4 8-35.7 29.1-10.3c3.1-.3 15.1-1.6 20.2-2.5 9.1-1.6 26.6 1.2 35.7 3.1l9.1 29.2s-11.1 10.6-11.4 11.4c0 0-13.2 31.7-13.3 32.3l-.5 4.8c-11.3 3.4-22.5 6.3-33.5 8.8zm32.2 4-2.7 26.9-17.7 19.8c-1.4-6-3-13-3.5-17.2-.7-5.8-1.9-16.3-2.6-22.6 8.7-2 17.6-4.3 26.5-6.9zm157.4-115.8-16.2 33.9-49.3 12.1-21.9-28.4 26.7-37.2c1.3-1.8 1.5-4 .6-6l-5.2-11.5 14.1-14.9C381 122 394 129.6 406 137.6c10.1 6.7 19.2 13.6 27.4 20.5l-12.2 5.9c-1.2.6-2.2 1.6-2.8 2.8zm-37.3-72-13.7-29.7v-.4l.1-18.7c31.4 23.5 53.5 56.8 63 94.4-5.6-4.3-11.5-8.5-17.8-12.7-11.4-7.6-23.8-15-36.9-21.9l4.2-4.4c1.7-1.7 2.1-4.4 1.1-6.6zm-25.2-26.1 12.6 27.4-3.8 4c-17.6-8.7-36.3-16.7-55.7-23.7-3.5-1.3-7.2-2.5-10.9-3.8-5.4-1.8-10.7-3.5-16.1-5.2l-4-8.9c.3-5.4 1.1-25.1 2-45.8 26.9 2.3 52.8 10.9 75.7 25.1l-.2 26.7-.1 1.4c-.1 1 .1 1.9.5 2.8zm-69.7 37.7-2.3 34.4-32 12.5-9.7-22.5c-.9-2.2-3.1-3.6-5.5-3.6-.1 0-.3 0-.5.2l-31.8 2.8-12.7-29.1c-.4-.9-1.1-1.8-1.9-2.4-1.3-1-24.3-18.6-38.3-25-2.7-1.3-5.1-2.4-7.3-3.6-1.5-.9-3-1.7-4.3-2.5 3-3.3 6.2-6.5 9.4-9.5 9.5-.1 19.5.3 29.8 1.1v1.3c0 18 14.6 32.6 32.6 32.6 14.9 0 27.5-10.1 31.4-23.8 9.9 2.3 20 4.9 30 7.9zm-95.1-45.9v-.2c0-4.3 1.4-8.3 3.7-11.6 3.7-5.4 9.9-8.9 16.9-8.9 9.4 0 17.2 6.3 19.8 14.8.6 1.9.9 3.8.9 5.8 0 2.2-.3 4.3-1 6.3C228.7 75 221 81 211.8 81c-11.5.1-20.7-9.2-20.7-20.5zm53-3.1c-1.6-16.5-15.5-29.5-32.5-29.5-13.4 0-24.8 8-29.9 19.5-6.3-.5-12.5-.9-18.6-1.1C207.7 9.4 267 12.2 267.8 12.2c-1 24.2-2.1 47.2-2.1 47.4-.1.9.8 3.4.8 3.4-7.4-2-14.9-3.9-22.4-5.6zm184.4 116.5 6.8-3.3c.2 2.6.3 5.1.3 7.7-4.9 4.4-10 8.8-15.5 13.2zm40 78.6c-7.1 7.4-17.7 13.3-31.4 17.5 2-13.2 3.5-23 4.3-29.3 1.2-9.1 9.7-14.3 17.5-14.3h.9c3.6.2 9.6 1.6 10.1 9-.5 5.4-1 11.2-1.4 17.1zm5.9-43.7c-1.2 2.2-2.9 8.5-3 8.8-3.2-1.8-6.9-3-11.1-3.2-5.4-.2-11.1 1-16.2 3.7 2.3-11.2 3.5-22.9 3.6-34.7 2-1.9 4-3.9 5.9-5.8 9.7 10.7 16.7 21.2 20.8 31.2zm-4.3-119.4c1.9 2.7 3.5 5.5 4.6 8.5 6.3 16.8-1.5 38.8-21.3 62.1-2.5-2.4-5.2-4.9-7.9-7.3-5.5-33.5-20.1-64.4-42-89.6 32.4 2.4 55.7 11.6 66.6 26.3zm-415 6.9C67 63 120.9 59.9 121 59.9c3.4-.4 6.9-.8 10.5-1-1.7 1.8-5.6 6.5-5.8 6.8-23.4 28-37.7 62.4-41.3 98.5C59.1 139 48.7 115 55.1 96.3zm28.4 89.1c.2 14.2 2.1 28.1 5.5 41.3-6.1-8.6-16.6-12.8-26.1-12.3h-.5c4.8-9.2 11.9-19 21.1-29zm-26.7 43.2c2.1-1.5 4.7-2 6.6-2.1 8-.4 17.1 4.8 18.4 14.3 1.1 7.6 3 20.5 5.7 38.5-15.6-6.1-26.1-15-30.3-26.3-2.6-7.3-2.7-15.5-.4-24.4zm-36.5-22.5c7.6-1.1 17.2 3.5 19.5 12.3.4 4.8 4.7 55.4 6.8 80.5-.5.4-11.9 10.3-10.2 21.9.3 6.6 3.5 12.8 9.3 17.9l30.6 26.2c.5.5.7 2.6.7 3.2-.4 9.1-1.5 37 18.2 54.6l8-8.9c-15.5-13.9-14.1-46.5-14.1-46.9.1-4.3-1.7-8.4-5-11.2l-30.9-26.2c-3.2-2.8-5-6-5.1-9.3-.4-8.9 9.3-14.2 9.3-14.2 2.3-1.1 4.8-1.4 7.1-1.2 2.6.3 4.9 1.4 6.6 2.9l54.1 43.8s26.8 3.1 53.8 31.4c9.4 9.9 15.6 24.4 18.4 43.4 3.3 22.2.3 48.4.3 48.4H88l-75.9-90.1V217.8c-.6-8.5 4.1-11.1 8.2-11.7zm178.9 307.3H91.5v-26.7h107.7zm-107-204.2S75.7 296 73.6 295.1c-4.5-2.1-10-3-15.4-1.9-.6-6.4-1.1-13.1-1.7-19.6 7.9 8.2 19.1 14.7 33.2 19.2.7 5.1 1.6 10.6 2.5 16.4zm8.2-25.8c-2.6-16.8-4.5-29.6-5.8-38.4 5.5 14.8 12.8 28.8 21.8 41.5-5.7-.8-11-1.9-16-3.1zm165.2 68.8c-47.9 0-91.2-19.9-122.2-51.8h3.8c23.3 0 48.8-2.9 75.5-8.3.7 6.3 1.8 15.9 2.5 21.4 1.2 9.2 6.3 29 6.5 29.8.6 2.1 2.2 3.8 4.4 4.3.5.1 3 .6 5.9-1.8l26.6-29.7c.8-.9 1.4-2.1 1.5-3.4l3.4-33.8c7-2.2 14.1-4.6 21.1-7.1 5.5 10.4 16.3 17.4 28.8 17.4 18 0 32.6-14.6 32.6-32.6 0-3.6-.6-7-1.6-10.2 31-15.4 58.6-33.1 80.8-51.8-5.5 47.6-28.4 82.2-28.4 82.2-30.6 45.5-82.5 75.4-141.2 75.4zm169.5-69.3c12.7-3.4 23.5-8 32-13.8-.6 7.8-1.9 22.9-2 23.9-4.2-.8-8.3-.4-12.1.7-.3.1-6.7 2.9-8.8 4.7L431.1 309c1.5-9.5 2.8-18.2 4-26.1zm-3.3 230.5H324.1v-26.7h107.7zm3.5-38.7H325.6s-2.6-20 .2-48.3c2.8-19 9-33.6 18.4-43.4 27-28.3 51.7-31.2 51.9-31.2l1.8-.2 54.1-43.9c3.5-3 9.9-4.4 15.2-1 0 0 2.1 1.6 2.4 1.8 3.6 3.7 5.5 7.8 5.4 11.6-.1 3.3-1.9 6.5-5.1 9.3l-30.6 26.2c-3.3 2.8-5.1 6.9-5 11.2.1.4.1 1 .1 1.6.3 7.7 1.3 31.3-14.2 45.3l8 8.9c19.7-17.7 18.6-45.5 18.2-54.7-.1-.5-.1-1-.1-1.4 0-.7.3-1.4.8-1.8l30.7-26.3c5.7-5.1 8.9-11.2 9.2-17.9.3-7.1-2.8-14.4-8.8-20.5-.5-.5-1-.9-1.5-1.4 1.1-13.3 2.4-28.6 3.5-41.5 3.5-4.4 6.2-9.2 8-14.4 1.4-4.1 2.2-8.4 2.4-12.8.3-6.1-.6-12.5-2.6-19 4.1-3.9 9.9-5.7 15-4.9 4.1.6 8.8 3.1 8.2 11.7v.2l.1 165.6z" fill="#000000" opacity="1" data-original="#000000" class=""></path><path d="m148.4 157.3-19.2-9c-2.4-1.2-5.4-.5-7.1 1.6l-14.9 17.9c-1.1 1.3-1.6 2.9-1.4 4.5s1 3.1 2.3 4.1l25.5 19.7c1.1.8 2.4 1.2 3.7 1.2h8.5c3.4 0 6-2.7 6.1-6v-28.6c0-2.3-1.4-4.4-3.5-5.4zm-8.6 28h-.5l-19.1-14.6 8-9.6 11.6 5.4z" fill="#000000" opacity="1" data-original="#000000" class=""></path></g></svg>